<svg xmlns="http://www.w3.org/2000/svg" xmlns:xlink="http://www.w3.org/1999/xlink" width="40" zoomAndPan="magnify" viewBox="0 0 30 30.000001" height="40" preserveAspectRatio="xMidYMid meet" version="1.0"><defs><clipPath id="f7c9f4aeb2"><path d="M 0.484375 0 L 29.515625 0 L 29.515625 29.03125 L 0.484375 29.03125 Z M 0.484375 0 " clip-rule="nonzero"/></clipPath><clipPath id="a349e3b690"><path d="M 12.097656 11.613281 L 23.710938 11.613281 L 23.710938 23.226562 L 12.097656 23.226562 Z M 12.097656 11.613281 " clip-rule="nonzero"/></clipPath></defs><g clip-path="url(#f7c9f4aeb2)"><path fill="#000000" d="M 15 0 C 6.992188 0 0.484375 6.507812 0.484375 14.515625 C 0.484375 22.523438 6.992188 29.03125 15 29.03125 C 23.007812 29.03125 29.515625 22.523438 29.515625 14.515625 C 29.515625 6.507812 23.007812 0 15 0 Z M 15 0.632812 C 22.675781 0.632812 28.886719 6.839844 28.886719 14.515625 C 28.886719 22.191406 22.675781 28.402344 15 28.402344 C 7.324219 28.402344 1.113281 22.191406 1.113281 14.515625 C 1.113281 6.839844 7.324219 0.632812 15 0.632812 Z M 15 0.632812 " fill-opacity="1" fill-rule="nonzero"/></g><g clip-path="url(#a349e3b690)"><path fill="#ffffff" d="M 23.710938 17.417969 C 23.710938 17.800781 23.671875 18.179688 23.597656 18.550781 C 23.523438 18.925781 23.414062 19.289062 23.265625 19.640625 C 23.121094 19.992188 22.941406 20.328125 22.730469 20.644531 C 22.519531 20.960938 22.277344 21.253906 22.007812 21.523438 C 21.738281 21.792969 21.445312 22.035156 21.128906 22.246094 C 20.8125 22.457031 20.476562 22.636719 20.125 22.785156 C 19.773438 22.929688 19.410156 23.039062 19.035156 23.113281 C 18.660156 23.1875 18.285156 23.226562 17.902344 23.226562 C 17.523438 23.226562 17.144531 23.1875 16.769531 23.113281 C 16.394531 23.039062 16.035156 22.929688 15.679688 22.785156 C 15.328125 22.636719 14.996094 22.457031 14.675781 22.246094 C 14.359375 22.035156 14.066406 21.792969 13.796875 21.523438 C 13.527344 21.253906 13.289062 20.960938 13.074219 20.644531 C 12.863281 20.328125 12.683594 19.992188 12.539062 19.640625 C 12.394531 19.289062 12.28125 18.925781 12.207031 18.550781 C 12.132812 18.179688 12.097656 17.800781 12.097656 17.417969 C 12.097656 17.039062 12.132812 16.660156 12.207031 16.285156 C 12.28125 15.914062 12.394531 15.550781 12.539062 15.199219 C 12.683594 14.84375 12.863281 14.511719 13.074219 14.195312 C 13.289062 13.875 13.527344 13.582031 13.796875 13.3125 C 14.066406 13.042969 14.359375 12.804688 14.675781 12.589844 C 14.996094 12.378906 15.328125 12.199219 15.679688 12.054688 C 16.035156 11.910156 16.394531 11.800781 16.769531 11.722656 C 17.144531 11.648438 17.523438 11.613281 17.902344 11.613281 C 18.285156 11.613281 18.660156 11.648438 19.035156 11.722656 C 19.410156 11.800781 19.773438 11.910156 20.125 12.054688 C 20.476562 12.199219 20.8125 12.378906 21.128906 12.589844 C 21.445312 12.804688 21.738281 13.042969 22.007812 13.3125 C 22.277344 13.582031 22.519531 13.875 22.730469 14.195312 C 22.941406 14.511719 23.121094 14.84375 23.265625 15.199219 C 23.414062 15.550781 23.523438 15.914062 23.597656 16.285156 C 23.671875 16.660156 23.710938 17.039062 23.710938 17.417969 Z M 23.710938 17.417969 " fill-opacity="1" fill-rule="nonzero"/></g></svg>